<svg width="100%" height="100%" viewBox="0 0 600 600" version="1.1" xmlns="http://www.w3.org/2000/svg" xmlns:xlink="http://www.w3.org/1999/xlink" xml:space="preserve" xmlns:serif="http://www.serif.com/" style="fill-rule:evenodd;clip-rule:evenodd;stroke-linejoin:round;stroke-miterlimit:1.41421;">
    <g transform="matrix(0.943396,0,0,0.943396,16.9811,22.5244)">
        <g transform="matrix(1.4556,0,0,1.45604,-136.679,-134.134)">
            <path d="M475.054,283.14L475.054,318.271C475.054,318.271 398.046,332.71 300,332.598C201.954,332.486 124.946,318.271 124.946,318.271L124.946,283.14L475.054,283.14Z"/>
        </g>
        <g transform="matrix(1.51874,0,0,1.51429,-154.761,-151.463)">
            <path d="M132.247,398.164C130.872,398.4 129.471,397.933 128.509,396.919C127.548,395.906 127.153,394.478 127.456,393.113C129.844,382.42 134.67,360.242 136.429,348.002C138.712,332.112 140.335,300 140.335,300C140.335,300 199.484,288 299.591,288C419.275,288.846 459.665,300 459.665,300C459.665,300 461.301,332.202 463.591,348.137C465.347,360.361 470.153,382.424 472.538,393.093C472.842,394.46 472.446,395.889 471.482,396.903C470.518,397.917 469.113,398.382 467.737,398.143C446.322,394.629 380.199,384.985 300,385.077C219.781,385.169 153.645,394.701 132.247,398.164Z" style="fill:white;"/>
        </g>
        <g transform="matrix(1.4556,0,0,1.45604,-136.679,-58.3308)">
            <path d="M475.054,266.095C475.054,266.095 398.046,251.656 300,251.768C202.032,251.881 125.068,266.072 124.946,266.095C124.946,266.095 124.946,193.537 124.946,171.713C124.946,168.183 127.479,165.162 130.956,164.545C150.869,161.279 218.093,151.344 300,151.25C381.933,151.156 449.174,161.224 469.062,164.536C472.529,165.16 475.051,168.176 475.051,171.698C475.054,193.503 475.054,266.095 475.054,266.095Z" style="fill:rgba(170, 184, 255);"/>
        </g>
        <g transform="matrix(1.4556,0,0,1.45604,-136.679,-96.9707)">
            <path d="M475.054,266.095C475.054,266.095 398.046,251.656 300,251.768C202.032,251.881 125.068,266.072 124.946,266.095C124.946,266.095 124.946,193.537 124.946,171.713C124.946,168.183 127.479,165.162 130.956,164.545C150.869,161.279 218.093,151.344 300,151.25C381.933,151.156 449.174,161.224 469.062,164.536C472.529,165.16 475.051,168.176 475.051,171.698C475.054,193.503 475.054,266.095 475.054,266.095Z" style="fill:rgb(170, 184, 255);"/>
        </g>
        <g transform="matrix(1.4556,0,0,1.45604,-136.679,-77.2593)">
            <path d="M475.054,266.095C475.054,266.095 398.046,251.656 300,251.768C202.032,251.881 125.068,266.072 124.946,266.095L124.946,165.577C124.946,165.577 201.954,151.362 300,151.25C398.046,151.138 475.054,165.577 475.054,165.577L475.054,266.095Z" style="fill:white;"/>
        </g>
    </g>
</svg>
